<?xml version="1.0" encoding="utf-8"?>
<svg version="1.1" xmlns="http://www.w3.org/2000/svg" xmlns:xlink="http://www.w3.org/1999/xlink" x="0px" y="0px"
	 width="192px" height="192px" viewBox="0 0 192 192" enable-background="new 0 0 192 192" xml:space="preserve">
<rect fill="none" width="192" height="192"/>
<g>
	<path fill="#1A73E8" d="M174.04,145.68L148.78,120L120,149.26l25.26,25.68c7.95,8.08,20.83,8.08,28.78,0
		C181.99,166.86,181.99,153.76,174.04,145.68z"/>
	<path fill="#669DF6" d="M138.18,32.82c-29.09-29.09-76.27-29.09-105.36,0l0,0c-29.09,29.09-29.09,76.27,0,105.36
		c29.09,29.09,76.27,29.09,105.36,0l0,0C167.27,109.09,167.27,61.91,138.18,32.82z M109.33,109.33L109.33,109.33
		c-12.89,12.89-33.78,12.89-46.67,0s-12.89-33.78,0-46.67l0,0c12.89-12.89,33.78-12.89,46.67,0S122.22,96.45,109.33,109.33z"/>
</g>
</svg>
